<svg width="33" height="33" viewBox="0 0 33 33" fill="none" xmlns="http://www.w3.org/2000/svg">
<path d="M6.66699 27.5V23.5H26.667V27.5H6.66699ZM8.66699 21.5V17.25L19.867 6.075C20.0503 5.89167 20.2628 5.75 20.5045 5.65C20.7462 5.55 21.0003 5.5 21.267 5.5C21.5337 5.5 21.792 5.55 22.042 5.65C22.292 5.75 22.517 5.9 22.717 6.1L24.092 7.5C24.292 7.68333 24.4378 7.9 24.5295 8.15C24.6212 8.4 24.667 8.65833 24.667 8.925C24.667 9.175 24.6212 9.42083 24.5295 9.6625C24.4378 9.90417 24.292 10.125 24.092 10.325L12.917 21.5H8.66699ZM21.267 10.3L22.667 8.9L21.267 7.5L19.867 8.9L21.267 10.3Z" fill="#FF3766"/>
</svg>
