<svg width="33" height="33" viewBox="0 0 33 33" fill="none" xmlns="http://www.w3.org/2000/svg">
<g clip-path="url(#clip0_441_5098)">
<path d="M9.3335 25.5C8.7835 25.5 8.31266 25.3042 7.921 24.9125C7.52933 24.5208 7.3335 24.05 7.3335 23.5V9.5C7.3335 8.95 7.52933 8.47917 7.921 8.0875C8.31266 7.69583 8.7835 7.5 9.3335 7.5H23.3335C23.8835 7.5 24.3543 7.69583 24.746 8.0875C25.1377 8.47917 25.3335 8.95 25.3335 9.5V23.5C25.3335 24.05 25.1377 24.5208 24.746 24.9125C24.3543 25.3042 23.8835 25.5 23.3335 25.5H9.3335ZM11.3335 21.5H18.3335V19.5H11.3335V21.5ZM11.3335 17.5H21.3335V15.5H11.3335V17.5ZM11.3335 13.5H21.3335V11.5H11.3335V13.5Z" fill="#FF3766"/>
</g>
<defs>
<clipPath id="clip0_441_5098">
<rect width="32" height="32" fill="white" transform="translate(0.333496 0.5)"/>
</clipPath>
</defs>
</svg>
