<svg width="32" height="33" viewBox="0 0 32 33" fill="none" xmlns="http://www.w3.org/2000/svg">
<g clip-path="url(#clip0_441_5104)">
<path d="M16 16.5C14.9 16.5 13.9583 16.1083 13.175 15.325C12.3917 14.5417 12 13.6 12 12.5C12 11.4 12.3917 10.4583 13.175 9.675C13.9583 8.89167 14.9 8.5 16 8.5C17.1 8.5 18.0417 8.89167 18.825 9.675C19.6083 10.4583 20 11.4 20 12.5C20 13.6 19.6083 14.5417 18.825 15.325C18.0417 16.1083 17.1 16.5 16 16.5ZM8 24.5V21.7C8 21.1333 8.14583 20.6125 8.4375 20.1375C8.72917 19.6625 9.11667 19.3 9.6 19.05C10.6333 18.5333 11.6833 18.1458 12.75 17.8875C13.8167 17.6292 14.9 17.5 16 17.5C17.1 17.5 18.1833 17.6292 19.25 17.8875C20.3167 18.1458 21.3667 18.5333 22.4 19.05C22.8833 19.3 23.2708 19.6625 23.5625 20.1375C23.8542 20.6125 24 21.1333 24 21.7V24.5H8Z" fill="#ADB1BA"/>
</g>
<defs>
<clipPath id="clip0_441_5104">
<rect width="32" height="32" fill="white" transform="translate(0 0.5)"/>
</clipPath>
</defs>
</svg>
